<?xml version="1.0" encoding="UTF-8" standalone="no"?>
<svg
   xmlns:dc="http://purl.org/dc/elements/1.1/"
   xmlns:cc="http://creativecommons.org/ns#"
   xmlns:rdf="http://www.w3.org/1999/02/22-rdf-syntax-ns#"
   xmlns:svg="http://www.w3.org/2000/svg"
   xmlns="http://www.w3.org/2000/svg"
   xmlns:sodipodi="http://sodipodi.sourceforge.net/DTD/sodipodi-0.dtd"
   xmlns:inkscape="http://www.inkscape.org/namespaces/inkscape"
   fill-opacity="0"
   color-rendering="auto"
   color-interpolation="auto"
   stroke="rgb(0,0,0)"
   text-rendering="auto"
   stroke-linecap="square"
   width="534"
   stroke-miterlimit="10"
   stroke-opacity="0"
   shape-rendering="auto"
   fill="rgb(0,0,0)"
   stroke-dasharray="none"
   font-weight="normal"
   stroke-width="1"
   height="556"
   font-family="'Dialog'"
   font-style="normal"
   stroke-linejoin="miter"
   font-size="12"
   stroke-dashoffset="0"
   image-rendering="auto"
   id="svg2"
   version="1.1"
   inkscape:version="0.48.2 r9819"
   sodipodi:docname="Attributes.svg">
  <metadata
     id="metadata478">
    <rdf:RDF>
      <cc:Work
         rdf:about="">
        <dc:format>image/svg+xml</dc:format>
        <dc:type
           rdf:resource="http://purl.org/dc/dcmitype/StillImage" />
      </cc:Work>
    </rdf:RDF>
  </metadata>
  <sodipodi:namedview
     pagecolor="#ffffff"
     bordercolor="#666666"
     borderopacity="1"
     objecttolerance="10"
     gridtolerance="10"
     guidetolerance="10"
     inkscape:pageopacity="0"
     inkscape:pageshadow="2"
     inkscape:window-width="640"
     inkscape:window-height="480"
     id="namedview476"
     showgrid="false"
     inkscape:zoom="0.42446043"
     inkscape:cx="267"
     inkscape:cy="278"
     inkscape:window-x="0"
     inkscape:window-y="0"
     inkscape:window-maximized="0"
     inkscape:current-layer="svg2" />
  <!--Generated by the Batik Graphics2D SVG Generator-->
  <defs
     id="genericDefs" />
  <g
     id="g5">
    <defs
       id="defs1">
      <clipPath
         clipPathUnits="userSpaceOnUse"
         id="clipPath1">
        <path
           d="M-7 -7 L383 -7 L383 113 L-7 113 L-7 -7 Z"
           id="path9" />
      </clipPath>
      <clipPath
         clipPathUnits="userSpaceOnUse"
         id="clipPath2">
        <path
           d="M0 0 L0 72 L372 72 L372 0 Z"
           id="path12" />
      </clipPath>
      <clipPath
         clipPathUnits="userSpaceOnUse"
         id="clipPath3">
        <path
           d="M0 0 L372 0 L372 30 L0 30 L0 0 Z"
           id="path15" />
      </clipPath>
      <clipPath
         clipPathUnits="userSpaceOnUse"
         id="clipPath4">
        <path
           d="M-7 -7 L141 -7 L141 51 L-7 51 L-7 -7 Z"
           id="path18" />
      </clipPath>
      <clipPath
         clipPathUnits="userSpaceOnUse"
         id="clipPath5">
        <path
           d="M0 0 L0 10 L130 10 L130 0 Z"
           id="path21" />
      </clipPath>
      <clipPath
         clipPathUnits="userSpaceOnUse"
         id="clipPath6">
        <path
           d="M0 0 L130 0 L130 30 L0 30 L0 0 Z"
           id="path24" />
      </clipPath>
      <clipPath
         clipPathUnits="userSpaceOnUse"
         id="clipPath7">
        <path
           d="M-7 -7 L491 -7 L491 231 L-7 231 L-7 -7 Z"
           id="path27" />
      </clipPath>
      <clipPath
         clipPathUnits="userSpaceOnUse"
         id="clipPath8">
        <path
           d="M0 0 L480 0 L480 15 L0 15 L0 0 Z"
           id="path30" />
      </clipPath>
      <clipPath
         clipPathUnits="userSpaceOnUse"
         id="clipPath9">
        <path
           d="M-7 -7 L229 -7 L229 64 L-7 64 L-7 -7 Z"
           id="path33" />
      </clipPath>
      <clipPath
         clipPathUnits="userSpaceOnUse"
         id="clipPath10">
        <path
           d="M0 0 L0 23 L218 23 L218 0 Z"
           id="path36" />
      </clipPath>
      <clipPath
         clipPathUnits="userSpaceOnUse"
         id="clipPath11">
        <path
           d="M0 0 L218 0 L218 30 L0 30 L0 0 Z"
           id="path39" />
      </clipPath>
      <clipPath
         clipPathUnits="userSpaceOnUse"
         id="clipPath12">
        <path
           d="M-7 -7 L161 -7 L161 64 L-7 64 L-7 -7 Z"
           id="path42" />
      </clipPath>
      <clipPath
         clipPathUnits="userSpaceOnUse"
         id="clipPath13">
        <path
           d="M0 0 L0 23 L150 23 L150 0 Z"
           id="path45" />
      </clipPath>
      <clipPath
         clipPathUnits="userSpaceOnUse"
         id="clipPath14">
        <path
           d="M0 0 L150 0 L150 30 L0 30 L0 0 Z"
           id="path48" />
      </clipPath>
      <clipPath
         clipPathUnits="userSpaceOnUse"
         id="clipPath15">
        <path
           d="M-7 -7 L131 -7 L131 51 L-7 51 L-7 -7 Z"
           id="path51" />
      </clipPath>
      <clipPath
         clipPathUnits="userSpaceOnUse"
         id="clipPath16">
        <path
           d="M0 0 L0 10 L120 10 L120 0 Z"
           id="path54" />
      </clipPath>
      <clipPath
         clipPathUnits="userSpaceOnUse"
         id="clipPath17">
        <path
           d="M0 0 L120 0 L120 30 L0 30 L0 0 Z"
           id="path57" />
      </clipPath>
      <clipPath
         clipPathUnits="userSpaceOnUse"
         id="clipPath18">
        <path
           d="M-7 -7 L121 -7 L121 51 L-7 51 L-7 -7 Z"
           id="path60" />
      </clipPath>
      <clipPath
         clipPathUnits="userSpaceOnUse"
         id="clipPath19">
        <path
           d="M0 0 L0 10 L110 10 L110 0 Z"
           id="path63" />
      </clipPath>
      <clipPath
         clipPathUnits="userSpaceOnUse"
         id="clipPath20">
        <path
           d="M0 0 L110 0 L110 30 L0 30 L0 0 Z"
           id="path66" />
      </clipPath>
      <clipPath
         clipPathUnits="userSpaceOnUse"
         id="clipPath21">
        <path
           d="M-7 -7 L151 -7 L151 51 L-7 51 L-7 -7 Z"
           id="path69" />
      </clipPath>
      <clipPath
         clipPathUnits="userSpaceOnUse"
         id="clipPath22">
        <path
           d="M0 0 L0 10 L140 10 L140 0 Z"
           id="path72" />
      </clipPath>
      <clipPath
         clipPathUnits="userSpaceOnUse"
         id="clipPath23">
        <path
           d="M0 0 L140 0 L140 30 L0 30 L0 0 Z"
           id="path75" />
      </clipPath>
      <clipPath
         clipPathUnits="userSpaceOnUse"
         id="clipPath24">
        <path
           d="M-7 -7 L171 -7 L171 51 L-7 51 L-7 -7 Z"
           id="path78" />
      </clipPath>
      <clipPath
         clipPathUnits="userSpaceOnUse"
         id="clipPath25">
        <path
           d="M0 0 L0 10 L160 10 L160 0 Z"
           id="path81" />
      </clipPath>
      <clipPath
         clipPathUnits="userSpaceOnUse"
         id="clipPath26">
        <path
           d="M0 0 L160 0 L160 30 L0 30 L0 0 Z"
           id="path84" />
      </clipPath>
      <clipPath
         clipPathUnits="userSpaceOnUse"
         id="clipPath27">
        <path
           d="M-7 -7 L321 -7 L321 61 L-7 61 L-7 -7 Z"
           id="path87" />
      </clipPath>
      <clipPath
         clipPathUnits="userSpaceOnUse"
         id="clipPath28">
        <path
           d="M0 0 L0 20 L310 20 L310 0 Z"
           id="path90" />
      </clipPath>
      <clipPath
         clipPathUnits="userSpaceOnUse"
         id="clipPath29">
        <path
           d="M0 0 L310 0 L310 30 L0 30 L0 0 Z"
           id="path93" />
      </clipPath>
      <clipPath
         clipPathUnits="userSpaceOnUse"
         id="clipPath30">
        <path
           d="M0 0 L169 0 L169 171 L0 171 L0 0 Z"
           id="path96" />
      </clipPath>
      <clipPath
         clipPathUnits="userSpaceOnUse"
         id="clipPath31">
        <path
           d="M0 0 L234 0 L234 170 L0 170 L0 0 Z"
           id="path99" />
      </clipPath>
      <clipPath
         clipPathUnits="userSpaceOnUse"
         id="clipPath32">
        <path
           d="M0 0 L104 0 L104 152 L0 152 L0 0 Z"
           id="path102" />
      </clipPath>
      <clipPath
         clipPathUnits="userSpaceOnUse"
         id="clipPath33">
        <path
           d="M0 0 L254 0 L254 262 L0 262 L0 0 Z"
           id="path105" />
      </clipPath>
      <clipPath
         clipPathUnits="userSpaceOnUse"
         id="clipPath34">
        <path
           d="M0 0 L259 0 L259 332 L0 332 L0 0 Z"
           id="path108" />
      </clipPath>
      <clipPath
         clipPathUnits="userSpaceOnUse"
         id="clipPath35">
        <path
           d="M0 0 L284 0 L284 262 L0 262 L0 0 Z"
           id="path111" />
      </clipPath>
      <clipPath
         clipPathUnits="userSpaceOnUse"
         id="clipPath36">
        <path
           d="M0 0 L284 0 L284 332 L0 332 L0 0 Z"
           id="path114" />
      </clipPath>
      <clipPath
         clipPathUnits="userSpaceOnUse"
         id="clipPath37">
        <path
           d="M0 0 L174 0 L174 229 L0 229 L0 0 Z"
           id="path117" />
      </clipPath>
      <clipPath
         clipPathUnits="userSpaceOnUse"
         id="clipPath38">
        <path
           d="M0 0 L174 0 L174 279 L0 279 L0 0 Z"
           id="path120" />
      </clipPath>
    </defs>
    <g
       fill="white"
       text-rendering="geometricPrecision"
       fill-opacity="1"
       stroke-opacity="1"
       stroke="white"
       id="g122">
      <rect
         x="0"
         width="534"
         height="556"
         y="0"
         stroke="none"
         id="rect124" />
    </g>
    <g
       font-size="11"
       transform="translate(122,2)"
       fill-opacity="1"
       fill="rgb(192,192,255)"
       text-rendering="geometricPrecision"
       font-family="sans-serif"
       stroke="rgb(192,192,255)"
       font-weight="bold"
       stroke-opacity="1"
       id="g126">
      <rect
         x="0"
         width="372"
         height="102"
         y="0"
         clip-path="url(#clipPath1)"
         stroke="none"
         id="rect128" />
    </g>
    <g
       font-size="11"
       stroke-linecap="butt"
       transform="translate(122,2)"
       fill-opacity="1"
       fill="rgb(0,0,192)"
       text-rendering="geometricPrecision"
       font-family="sans-serif"
       stroke-linejoin="round"
       stroke="rgb(0,0,192)"
       font-weight="bold"
       stroke-opacity="1"
       stroke-miterlimit="0"
       id="g130">
      <rect
         fill="none"
         x="0"
         width="372"
         height="102"
         y="0"
         clip-path="url(#clipPath1)"
         id="rect132" />
      <line
         y2="30"
         fill="none"
         x1="0"
         clip-path="url(#clipPath1)"
         x2="372"
         y1="30"
         id="line134" />
    </g>
    <g
       font-size="11"
       transform="matrix(1,0,0,1,122,32)"
       fill-opacity="1"
       fill="black"
       text-rendering="geometricPrecision"
       font-family="sans-serif"
       stroke="black"
       stroke-opacity="1"
       id="g136">
      <text
         x="2"
         xml:space="preserve"
         y="14"
         clip-path="url(#clipPath2)"
         stroke="none"
         id="text138">+Name : string</text>
    </g>
    <g
       font-size="11"
       transform="matrix(1,0,0,1,122,32)"
       fill-opacity="1"
       fill="black"
       text-rendering="geometricPrecision"
       font-family="sans-serif"
       stroke="black"
       stroke-opacity="1"
       id="g140">
      <text
         x="2"
         xml:space="preserve"
         y="29"
         clip-path="url(#clipPath2)"
         stroke="none"
         id="text142">+IsSetUpOrTearDown : bool</text>
    </g>
    <g
       font-size="11"
       stroke-linecap="butt"
       transform="matrix(1,0,0,1,122,32)"
       fill-opacity="1"
       fill="rgb(0,0,192)"
       text-rendering="geometricPrecision"
       font-family="sans-serif"
       stroke-linejoin="bevel"
       stroke="rgb(0,0,192)"
       stroke-opacity="1"
       stroke-miterlimit="0"
       id="g144">
      <line
         y2="34"
         fill="none"
         x1="0"
         clip-path="url(#clipPath2)"
         x2="372"
         y1="34"
         id="line146" />
    </g>
    <g
       font-size="11"
       transform="matrix(1,0,0,1,122,32)"
       fill-opacity="1"
       fill="black"
       text-rendering="geometricPrecision"
       font-family="sans-serif"
       stroke="black"
       stroke-opacity="1"
       id="g148">
      <text
         x="2"
         xml:space="preserve"
         y="48"
         clip-path="url(#clipPath2)"
         stroke="none"
         id="text150">+IsMemberValidFor(attribute : Type, memberToCheck : MemberInfo) : bool</text>
      <line
         y2="50"
         fill="none"
         x1="2"
         clip-path="url(#clipPath2)"
         x2="354"
         y1="50"
         id="line152" />
      <text
         font-style="italic"
         x="2"
         xml:space="preserve"
         y="63"
         clip-path="url(#clipPath2)"
         stroke="none"
         id="text154">#Validate(member : MemberInfo) : bool</text>
    </g>
    <g
       font-size="11"
       transform="translate(122,2)"
       fill-opacity="1"
       fill="black"
       text-rendering="geometricPrecision"
       font-family="sans-serif"
       stroke="black"
       stroke-opacity="1"
       id="g156">
      <text
         x="152"
         xml:space="preserve"
         y="12"
         clip-path="url(#clipPath3)"
         stroke="none"
         id="text158">&lt;&lt;Attribute&gt;&gt;</text>
      <text
         x="148"
         y="27"
         clip-path="url(#clipPath3)"
         font-style="italic"
         stroke="none"
         font-weight="bold"
         xml:space="preserve"
         id="text160">JUUTAttribute</text>
    </g>
    <g
       font-size="11"
       transform="translate(162,172)"
       fill-opacity="1"
       fill="rgb(192,192,255)"
       text-rendering="geometricPrecision"
       font-family="sans-serif"
       stroke="rgb(192,192,255)"
       font-weight="bold"
       stroke-opacity="1"
       id="g162">
      <rect
         x="0"
         width="130"
         height="40"
         y="0"
         clip-path="url(#clipPath4)"
         stroke="none"
         id="rect164" />
    </g>
    <g
       font-size="11"
       stroke-linecap="butt"
       transform="translate(162,172)"
       fill-opacity="1"
       fill="rgb(0,0,192)"
       text-rendering="geometricPrecision"
       font-family="sans-serif"
       stroke-linejoin="round"
       stroke="rgb(0,0,192)"
       font-weight="bold"
       stroke-opacity="1"
       stroke-miterlimit="0"
       id="g166">
      <rect
         fill="none"
         x="0"
         width="130"
         height="40"
         y="0"
         clip-path="url(#clipPath4)"
         id="rect168" />
      <line
         y2="30"
         fill="none"
         x1="0"
         clip-path="url(#clipPath4)"
         x2="130"
         y1="30"
         id="line170" />
    </g>
    <g
       font-size="11"
       transform="translate(162,172)"
       fill-opacity="1"
       fill="black"
       text-rendering="geometricPrecision"
       font-family="sans-serif"
       stroke="black"
       stroke-opacity="1"
       id="g172">
      <text
         x="31"
         xml:space="preserve"
         y="12"
         clip-path="url(#clipPath6)"
         stroke="none"
         id="text174">&lt;&lt;Attribute&gt;&gt;</text>
      <text
         x="8"
         y="27"
         clip-path="url(#clipPath6)"
         font-style="italic"
         stroke="none"
         font-weight="bold"
         xml:space="preserve"
         id="text176">JUUTMethodAttribute</text>
    </g>
    <g
       font-size="11"
       transform="translate(2,332)"
       fill-opacity="1"
       fill="rgb(210,210,255)"
       text-rendering="geometricPrecision"
       font-family="sans-serif"
       stroke="rgb(210,210,255)"
       stroke-opacity="1"
       id="g178">
      <rect
         x="0"
         width="95"
         height="20"
         y="0"
         clip-path="url(#clipPath7)"
         stroke="none"
         id="rect180" />
      <rect
         x="0"
         width="479"
         height="199"
         y="20"
         clip-path="url(#clipPath7)"
         stroke="none"
         id="rect182" />
    </g>
    <g
       font-size="11"
       stroke-linecap="butt"
       transform="translate(2,332)"
       fill-opacity="1"
       fill="navy"
       text-rendering="geometricPrecision"
       font-family="sans-serif"
       stroke-linejoin="round"
       stroke="navy"
       stroke-opacity="1"
       stroke-miterlimit="0"
       id="g184">
      <path
         fill="none"
         d="M0 20 L479 20 L479 219 L0 219 L0 0 L95 0 L95 20"
         clip-path="url(#clipPath7)"
         id="path186" />
    </g>
    <g
       font-size="11"
       transform="translate(2,352)"
       fill-opacity="1"
       fill="black"
       text-rendering="geometricPrecision"
       font-family="sans-serif"
       stroke="black"
       stroke-opacity="1"
       id="g188">
      <text
         x="219"
         xml:space="preserve"
         y="12"
         clip-path="url(#clipPath8)"
         stroke="none"
         id="text190">Methods</text>
    </g>
    <g
       font-size="11"
       transform="translate(312,172)"
       fill-opacity="1"
       fill="rgb(192,192,255)"
       text-rendering="geometricPrecision"
       font-family="sans-serif"
       stroke="rgb(192,192,255)"
       font-weight="bold"
       stroke-opacity="1"
       id="g192">
      <rect
         x="0"
         width="218"
         height="53"
         y="0"
         clip-path="url(#clipPath9)"
         stroke="none"
         id="rect194" />
    </g>
    <g
       font-size="11"
       stroke-linecap="butt"
       transform="translate(312,172)"
       fill-opacity="1"
       fill="rgb(0,0,192)"
       text-rendering="geometricPrecision"
       font-family="sans-serif"
       stroke-linejoin="round"
       stroke="rgb(0,0,192)"
       font-weight="bold"
       stroke-opacity="1"
       stroke-miterlimit="0"
       id="g196">
      <rect
         fill="none"
         x="0"
         width="218"
         height="53"
         y="0"
         clip-path="url(#clipPath9)"
         id="rect198" />
      <line
         y2="30"
         fill="none"
         x1="0"
         clip-path="url(#clipPath9)"
         x2="218"
         y1="30"
         id="line200" />
    </g>
    <g
       font-size="11"
       transform="matrix(1,0,0,1,312,202)"
       fill-opacity="1"
       fill="black"
       text-rendering="geometricPrecision"
       font-family="sans-serif"
       stroke="black"
       stroke-opacity="1"
       id="g202">
      <text
         x="2"
         xml:space="preserve"
         y="14"
         clip-path="url(#clipPath10)"
         stroke="none"
         id="text204">+CreateRunner(target : Type) : TestRunner</text>
    </g>
    <g
       font-size="11"
       transform="matrix(1,0,0,1,312,202)"
       fill-opacity="1"
       fill="black"
       text-rendering="geometricPrecision"
       font-family="sans-serif"
       stroke="black"
       stroke-opacity="1"
       id="g206">
      <line
         y2="16"
         fill="none"
         x1="2"
         clip-path="url(#clipPath10)"
         x2="209"
         y1="16"
         id="line208" />
    </g>
    <g
       font-size="11"
       transform="translate(312,172)"
       fill-opacity="1"
       fill="black"
       text-rendering="geometricPrecision"
       font-family="sans-serif"
       stroke="black"
       stroke-opacity="1"
       id="g210">
      <text
         x="75"
         xml:space="preserve"
         y="12"
         clip-path="url(#clipPath11)"
         stroke="none"
         id="text212">&lt;&lt;Attribute&gt;&gt;</text>
      <text
         x="45"
         xml:space="preserve"
         y="27"
         font-weight="bold"
         clip-path="url(#clipPath11)"
         stroke="none"
         id="text214">JUUTTestClassAttribute</text>
    </g>
    <g
       font-size="11"
       transform="translate(152,262)"
       fill-opacity="1"
       fill="rgb(192,192,255)"
       text-rendering="geometricPrecision"
       font-family="sans-serif"
       stroke="rgb(192,192,255)"
       font-weight="bold"
       stroke-opacity="1"
       id="g216">
      <rect
         x="0"
         width="150"
         height="53"
         y="0"
         clip-path="url(#clipPath12)"
         stroke="none"
         id="rect218" />
    </g>
    <g
       font-size="11"
       stroke-linecap="butt"
       transform="translate(152,262)"
       fill-opacity="1"
       fill="rgb(0,0,192)"
       text-rendering="geometricPrecision"
       font-family="sans-serif"
       stroke-linejoin="round"
       stroke="rgb(0,0,192)"
       font-weight="bold"
       stroke-opacity="1"
       stroke-miterlimit="0"
       id="g220">
      <rect
         fill="none"
         x="0"
         width="150"
         height="53"
         y="0"
         clip-path="url(#clipPath12)"
         id="rect222" />
      <line
         y2="30"
         fill="none"
         x1="0"
         clip-path="url(#clipPath12)"
         x2="150"
         y1="30"
         id="line224" />
    </g>
    <g
       font-size="11"
       transform="matrix(1,0,0,1,152,292)"
       fill-opacity="1"
       fill="black"
       text-rendering="geometricPrecision"
       font-family="sans-serif"
       stroke="black"
       stroke-opacity="1"
       id="g226">
      <text
         x="2"
         xml:space="preserve"
         y="14"
         clip-path="url(#clipPath13)"
         stroke="none"
         id="text228">+IsTestReadyToRun : bool</text>
    </g>
    <g
       font-size="11"
       transform="translate(152,262)"
       fill-opacity="1"
       fill="black"
       text-rendering="geometricPrecision"
       font-family="sans-serif"
       stroke="black"
       stroke-opacity="1"
       id="g230">
      <text
         x="41"
         xml:space="preserve"
         y="12"
         clip-path="url(#clipPath14)"
         stroke="none"
         id="text232">&lt;&lt;Attribute&gt;&gt;</text>
      <text
         x="6"
         y="27"
         clip-path="url(#clipPath14)"
         font-style="italic"
         stroke="none"
         font-weight="bold"
         xml:space="preserve"
         id="text234">JUUTTestMethodAttribute</text>
    </g>
    <g
       font-size="11"
       transform="translate(12,372)"
       fill-opacity="1"
       fill="rgb(192,192,255)"
       text-rendering="geometricPrecision"
       font-family="sans-serif"
       stroke="rgb(192,192,255)"
       font-weight="bold"
       stroke-opacity="1"
       id="g236">
      <rect
         x="0"
         width="120"
         height="40"
         y="0"
         clip-path="url(#clipPath15)"
         stroke="none"
         id="rect238" />
    </g>
    <g
       font-size="11"
       stroke-linecap="butt"
       transform="translate(12,372)"
       fill-opacity="1"
       fill="rgb(0,0,192)"
       text-rendering="geometricPrecision"
       font-family="sans-serif"
       stroke-linejoin="round"
       stroke="rgb(0,0,192)"
       font-weight="bold"
       stroke-opacity="1"
       stroke-miterlimit="0"
       id="g240">
      <rect
         fill="none"
         x="0"
         width="120"
         height="40"
         y="0"
         clip-path="url(#clipPath15)"
         id="rect242" />
      <line
         y2="30"
         fill="none"
         x1="0"
         clip-path="url(#clipPath15)"
         x2="120"
         y1="30"
         id="line244" />
    </g>
    <g
       font-size="11"
       transform="translate(12,372)"
       fill-opacity="1"
       fill="black"
       text-rendering="geometricPrecision"
       font-family="sans-serif"
       stroke="black"
       stroke-opacity="1"
       id="g246">
      <text
         x="26"
         xml:space="preserve"
         y="12"
         clip-path="url(#clipPath17)"
         stroke="none"
         id="text248">&lt;&lt;Attribute&gt;&gt;</text>
      <text
         x="6"
         xml:space="preserve"
         y="27"
         font-weight="bold"
         clip-path="url(#clipPath17)"
         stroke="none"
         id="text250">ClassSetUpAttribute</text>
    </g>
    <g
       font-size="11"
       transform="translate(12,442)"
       fill-opacity="1"
       fill="rgb(192,192,255)"
       text-rendering="geometricPrecision"
       font-family="sans-serif"
       stroke="rgb(192,192,255)"
       font-weight="bold"
       stroke-opacity="1"
       id="g252">
      <rect
         x="0"
         width="110"
         height="40"
         y="0"
         clip-path="url(#clipPath18)"
         stroke="none"
         id="rect254" />
    </g>
    <g
       font-size="11"
       stroke-linecap="butt"
       transform="translate(12,442)"
       fill-opacity="1"
       fill="rgb(0,0,192)"
       text-rendering="geometricPrecision"
       font-family="sans-serif"
       stroke-linejoin="round"
       stroke="rgb(0,0,192)"
       font-weight="bold"
       stroke-opacity="1"
       stroke-miterlimit="0"
       id="g256">
      <rect
         fill="none"
         x="0"
         width="110"
         height="40"
         y="0"
         clip-path="url(#clipPath18)"
         id="rect258" />
      <line
         y2="30"
         fill="none"
         x1="0"
         clip-path="url(#clipPath18)"
         x2="110"
         y1="30"
         id="line260" />
    </g>
    <g
       font-size="11"
       transform="translate(12,442)"
       fill-opacity="1"
       fill="black"
       text-rendering="geometricPrecision"
       font-family="sans-serif"
       stroke="black"
       stroke-opacity="1"
       id="g262">
      <text
         x="21"
         xml:space="preserve"
         y="12"
         clip-path="url(#clipPath20)"
         stroke="none"
         id="text264">&lt;&lt;Attribute&gt;&gt;</text>
      <text
         x="4"
         xml:space="preserve"
         y="27"
         font-weight="bold"
         clip-path="url(#clipPath20)"
         stroke="none"
         id="text266">TestSetUpAttribute</text>
    </g>
    <g
       font-size="11"
       transform="translate(332,372)"
       fill-opacity="1"
       fill="rgb(192,192,255)"
       text-rendering="geometricPrecision"
       font-family="sans-serif"
       stroke="rgb(192,192,255)"
       font-weight="bold"
       stroke-opacity="1"
       id="g268">
      <rect
         x="0"
         width="140"
         height="40"
         y="0"
         clip-path="url(#clipPath21)"
         stroke="none"
         id="rect270" />
    </g>
    <g
       font-size="11"
       stroke-linecap="butt"
       transform="translate(332,372)"
       fill-opacity="1"
       fill="rgb(0,0,192)"
       text-rendering="geometricPrecision"
       font-family="sans-serif"
       stroke-linejoin="round"
       stroke="rgb(0,0,192)"
       font-weight="bold"
       stroke-opacity="1"
       stroke-miterlimit="0"
       id="g272">
      <rect
         fill="none"
         x="0"
         width="140"
         height="40"
         y="0"
         clip-path="url(#clipPath21)"
         id="rect274" />
      <line
         y2="30"
         fill="none"
         x1="0"
         clip-path="url(#clipPath21)"
         x2="140"
         y1="30"
         id="line276" />
    </g>
    <g
       font-size="11"
       transform="translate(332,372)"
       fill-opacity="1"
       fill="black"
       text-rendering="geometricPrecision"
       font-family="sans-serif"
       stroke="black"
       stroke-opacity="1"
       id="g278">
      <text
         x="36"
         xml:space="preserve"
         y="12"
         clip-path="url(#clipPath23)"
         stroke="none"
         id="text280">&lt;&lt;Attribute&gt;&gt;</text>
      <text
         x="5"
         xml:space="preserve"
         y="27"
         font-weight="bold"
         clip-path="url(#clipPath23)"
         stroke="none"
         id="text282">ClassTearDownAttribute</text>
    </g>
    <g
       font-size="11"
       transform="translate(332,442)"
       fill-opacity="1"
       fill="rgb(192,192,255)"
       text-rendering="geometricPrecision"
       font-family="sans-serif"
       stroke="rgb(192,192,255)"
       font-weight="bold"
       stroke-opacity="1"
       id="g284">
      <rect
         x="0"
         width="140"
         height="40"
         y="0"
         clip-path="url(#clipPath21)"
         stroke="none"
         id="rect286" />
    </g>
    <g
       font-size="11"
       stroke-linecap="butt"
       transform="translate(332,442)"
       fill-opacity="1"
       fill="rgb(0,0,192)"
       text-rendering="geometricPrecision"
       font-family="sans-serif"
       stroke-linejoin="round"
       stroke="rgb(0,0,192)"
       font-weight="bold"
       stroke-opacity="1"
       stroke-miterlimit="0"
       id="g288">
      <rect
         fill="none"
         x="0"
         width="140"
         height="40"
         y="0"
         clip-path="url(#clipPath21)"
         id="rect290" />
      <line
         y2="30"
         fill="none"
         x1="0"
         clip-path="url(#clipPath21)"
         x2="140"
         y1="30"
         id="line292" />
    </g>
    <g
       font-size="11"
       transform="translate(332,442)"
       fill-opacity="1"
       fill="black"
       text-rendering="geometricPrecision"
       font-family="sans-serif"
       stroke="black"
       stroke-opacity="1"
       id="g294">
      <text
         x="36"
         xml:space="preserve"
         y="12"
         clip-path="url(#clipPath23)"
         stroke="none"
         id="text296">&lt;&lt;Attribute&gt;&gt;</text>
      <text
         x="9"
         xml:space="preserve"
         y="27"
         font-weight="bold"
         clip-path="url(#clipPath23)"
         stroke="none"
         id="text298">TestTearDownAttribute</text>
    </g>
    <g
       font-size="11"
       transform="translate(162,442)"
       fill-opacity="1"
       fill="rgb(192,192,255)"
       text-rendering="geometricPrecision"
       font-family="sans-serif"
       stroke="rgb(192,192,255)"
       font-weight="bold"
       stroke-opacity="1"
       id="g300">
      <rect
         x="0"
         width="160"
         height="40"
         y="0"
         clip-path="url(#clipPath24)"
         stroke="none"
         id="rect302" />
    </g>
    <g
       font-size="11"
       stroke-linecap="butt"
       transform="translate(162,442)"
       fill-opacity="1"
       fill="rgb(0,0,192)"
       text-rendering="geometricPrecision"
       font-family="sans-serif"
       stroke-linejoin="round"
       stroke="rgb(0,0,192)"
       font-weight="bold"
       stroke-opacity="1"
       stroke-miterlimit="0"
       id="g304">
      <rect
         fill="none"
         x="0"
         width="160"
         height="40"
         y="0"
         clip-path="url(#clipPath24)"
         id="rect306" />
      <line
         y2="30"
         fill="none"
         x1="0"
         clip-path="url(#clipPath24)"
         x2="160"
         y1="30"
         id="line308" />
    </g>
    <g
       font-size="11"
       transform="translate(162,442)"
       fill-opacity="1"
       fill="black"
       text-rendering="geometricPrecision"
       font-family="sans-serif"
       stroke="black"
       stroke-opacity="1"
       id="g310">
      <text
         x="46"
         xml:space="preserve"
         y="12"
         clip-path="url(#clipPath26)"
         stroke="none"
         id="text312">&lt;&lt;Attribute&gt;&gt;</text>
      <text
         x="8"
         xml:space="preserve"
         y="27"
         font-weight="bold"
         clip-path="url(#clipPath26)"
         stroke="none"
         id="text314">SimpleTestMethodAttribute</text>
    </g>
    <g
       font-size="11"
       transform="translate(82,492)"
       fill-opacity="1"
       fill="rgb(192,192,255)"
       text-rendering="geometricPrecision"
       font-family="sans-serif"
       stroke="rgb(192,192,255)"
       font-weight="bold"
       stroke-opacity="1"
       id="g316">
      <rect
         x="0"
         width="310"
         height="50"
         y="0"
         clip-path="url(#clipPath27)"
         stroke="none"
         id="rect318" />
    </g>
    <g
       font-size="11"
       stroke-linecap="butt"
       transform="translate(82,492)"
       fill-opacity="1"
       fill="rgb(0,0,192)"
       text-rendering="geometricPrecision"
       font-family="sans-serif"
       stroke-linejoin="round"
       stroke="rgb(0,0,192)"
       font-weight="bold"
       stroke-opacity="1"
       stroke-miterlimit="0"
       id="g320">
      <rect
         fill="none"
         x="0"
         width="310"
         height="50"
         y="0"
         clip-path="url(#clipPath27)"
         id="rect322" />
      <line
         y2="30"
         fill="none"
         x1="0"
         clip-path="url(#clipPath27)"
         x2="310"
         y1="30"
         id="line324" />
    </g>
    <g
       font-size="11"
       transform="matrix(1,0,0,1,82,522)"
       fill-opacity="1"
       fill="black"
       text-rendering="geometricPrecision"
       font-family="sans-serif"
       stroke="black"
       stroke-opacity="1"
       id="g326">
      <text
         x="2"
         xml:space="preserve"
         y="14"
         clip-path="url(#clipPath28)"
         stroke="none"
         id="text328">+TestAfterAttribute(targetClass : Type, targetMethod : string)</text>
    </g>
    <g
       font-size="11"
       transform="translate(82,492)"
       fill-opacity="1"
       fill="black"
       text-rendering="geometricPrecision"
       font-family="sans-serif"
       stroke="black"
       stroke-opacity="1"
       id="g330">
      <text
         x="121"
         xml:space="preserve"
         y="12"
         clip-path="url(#clipPath29)"
         stroke="none"
         id="text332">&lt;&lt;Attribute&gt;&gt;</text>
      <text
         x="107"
         xml:space="preserve"
         y="27"
         font-weight="bold"
         clip-path="url(#clipPath29)"
         stroke="none"
         id="text334">TestAfterAttribute</text>
    </g>
    <g
       font-size="11"
       stroke-linecap="butt"
       transform="translate(177,55)"
       fill-opacity="1"
       fill="black"
       text-rendering="geometricPrecision"
       font-family="sans-serif"
       stroke-linejoin="round"
       stroke="black"
       stroke-opacity="1"
       id="g336">
      <path
         fill="none"
         d="M115 50 L115 90 C115 90 115 97 108 97 M108 97 L57 97 C57 97 50 97 50 104 M50 104 L50 117"
         clip-path="url(#clipPath30)"
         id="path338" />
      <polygon
         fill="white"
         clip-path="url(#clipPath30)"
         points=" 115 50 109 62 121 62"
         stroke="none"
         id="polygon340" />
      <polygon
         fill="none"
         points=" 115 50 109 62 121 62"
         clip-path="url(#clipPath30)"
         id="polygon342" />
    </g>
    <g
       font-size="11"
       stroke-linecap="butt"
       transform="translate(242,55)"
       fill-opacity="1"
       fill="black"
       text-rendering="geometricPrecision"
       font-family="sans-serif"
       stroke-linejoin="round"
       stroke="black"
       stroke-opacity="1"
       id="g344">
      <path
         fill="none"
         d="M50 50 L50 90 C50 90 50 97 57 97 M57 97 L173 97 C173 97 180 97 180 104 M180 104 L180 116"
         clip-path="url(#clipPath31)"
         id="path346" />
      <polygon
         fill="white"
         clip-path="url(#clipPath31)"
         points=" 50 50 44 62 56 62"
         stroke="none"
         id="polygon348" />
      <polygon
         fill="none"
         points=" 50 50 44 62 56 62"
         clip-path="url(#clipPath31)"
         id="polygon350" />
    </g>
    <g
       font-size="11"
       stroke-linecap="butt"
       transform="translate(172,163)"
       fill-opacity="1"
       fill="black"
       text-rendering="geometricPrecision"
       font-family="sans-serif"
       stroke-linejoin="round"
       stroke="black"
       stroke-opacity="1"
       id="g352">
      <line
         y2="98"
         fill="none"
         x1="50"
         clip-path="url(#clipPath32)"
         x2="50"
         y1="50"
         id="line354" />
      <polygon
         fill="white"
         clip-path="url(#clipPath32)"
         points=" 50 50 44 62 56 62"
         stroke="none"
         id="polygon356" />
      <polygon
         fill="none"
         points=" 50 50 44 62 56 62"
         clip-path="url(#clipPath32)"
         id="polygon358" />
    </g>
    <g
       font-size="11"
       stroke-linecap="butt"
       transform="translate(22,163)"
       fill-opacity="1"
       fill="black"
       text-rendering="geometricPrecision"
       font-family="sans-serif"
       stroke-linejoin="round"
       stroke="black"
       stroke-opacity="1"
       id="g360">
      <path
         fill="none"
         d="M200 50 L200 72 C200 72 200 79 193 79 M193 79 L57 79 C57 79 50 79 50 86 M50 86 L50 208"
         clip-path="url(#clipPath33)"
         id="path362" />
      <polygon
         fill="white"
         clip-path="url(#clipPath33)"
         points=" 200 50 194 62 206 62"
         stroke="none"
         id="polygon364" />
      <polygon
         fill="none"
         points=" 200 50 194 62 206 62"
         clip-path="url(#clipPath33)"
         id="polygon366" />
    </g>
    <g
       font-size="11"
       stroke-linecap="butt"
       transform="translate(17,163)"
       fill-opacity="1"
       fill="black"
       text-rendering="geometricPrecision"
       font-family="sans-serif"
       stroke-linejoin="round"
       stroke="black"
       stroke-opacity="1"
       id="g368">
      <path
         fill="none"
         d="M205 50 L205 72 C205 72 205 79 198 79 M198 79 L132 79 C132 79 125 79 125 86 M125 86 L125 252 C125 252 125 259 118 259 M118 259 L57 259 C57 259 50 259 50 266 M50 266 L50 278"
         clip-path="url(#clipPath34)"
         id="path370" />
      <polygon
         fill="white"
         clip-path="url(#clipPath34)"
         points=" 205 50 199 62 211 62"
         stroke="none"
         id="polygon372" />
      <polygon
         fill="none"
         points=" 205 50 199 62 211 62"
         clip-path="url(#clipPath34)"
         id="polygon374" />
    </g>
    <g
       font-size="11"
       stroke-linecap="butt"
       transform="translate(172,163)"
       fill-opacity="1"
       fill="black"
       text-rendering="geometricPrecision"
       font-family="sans-serif"
       stroke-linejoin="round"
       stroke="black"
       stroke-opacity="1"
       id="g376">
      <path
         fill="none"
         d="M50 50 L50 72 C50 72 50 79 57 79 M57 79 L223 79 C223 79 230 79 230 86 M230 86 L230 208"
         clip-path="url(#clipPath35)"
         id="path378" />
      <polygon
         fill="white"
         clip-path="url(#clipPath35)"
         points=" 50 50 44 62 56 62"
         stroke="none"
         id="polygon380" />
      <polygon
         fill="none"
         points=" 50 50 44 62 56 62"
         clip-path="url(#clipPath35)"
         id="polygon382" />
    </g>
    <g
       font-size="11"
       stroke-linecap="butt"
       transform="translate(172,163)"
       fill-opacity="1"
       fill="black"
       text-rendering="geometricPrecision"
       font-family="sans-serif"
       stroke-linejoin="round"
       stroke="black"
       stroke-opacity="1"
       id="g384">
      <path
         fill="none"
         d="M50 50 L50 72 C50 72 50 79 57 79 M57 79 L133 79 C133 79 140 79 140 86 M140 86 L140 252 C140 252 140 259 147 259 M147 259 L223 259 C223 259 230 259 230 266 M230 266 L230 278"
         clip-path="url(#clipPath36)"
         id="path386" />
      <polygon
         fill="white"
         clip-path="url(#clipPath36)"
         points=" 50 50 44 62 56 62"
         stroke="none"
         id="polygon388" />
      <polygon
         fill="none"
         points=" 50 50 44 62 56 62"
         clip-path="url(#clipPath36)"
         id="polygon390" />
    </g>
    <g
       font-size="11"
       stroke-linecap="butt"
       transform="translate(172,266)"
       fill-opacity="1"
       fill="black"
       text-rendering="geometricPrecision"
       font-family="sans-serif"
       stroke-linejoin="round"
       stroke="black"
       stroke-opacity="1"
       id="g392">
      <path
         fill="none"
         d="M50 50 L50 69 C50 69 50 76 57 76 M57 76 L113 76 C113 76 120 76 120 83 M120 83 L120 175"
         clip-path="url(#clipPath37)"
         id="path394" />
      <polygon
         fill="white"
         clip-path="url(#clipPath37)"
         points=" 50 50 44 62 56 62"
         stroke="none"
         id="polygon396" />
      <polygon
         fill="none"
         points=" 50 50 44 62 56 62"
         clip-path="url(#clipPath37)"
         id="polygon398" />
    </g>
    <g
       font-size="11"
       stroke-linecap="butt"
       transform="translate(102,266)"
       fill-opacity="1"
       fill="black"
       text-rendering="geometricPrecision"
       font-family="sans-serif"
       stroke-linejoin="round"
       stroke="black"
       stroke-opacity="1"
       id="g400">
      <path
         fill="none"
         d="M120 50 L120 69 C120 69 120 76 113 76 M113 76 L57 76 C57 76 50 76 50 83 M50 83 L50 225"
         clip-path="url(#clipPath38)"
         id="path402" />
      <polygon
         fill="white"
         clip-path="url(#clipPath38)"
         points=" 120 50 114 62 126 62"
         stroke="none"
         id="polygon404" />
      <polygon
         fill="none"
         points=" 120 50 114 62 126 62"
         clip-path="url(#clipPath38)"
         id="polygon406" />
    </g>
  </g>
</svg>
